<?xml version="1.0" encoding="utf-8"?>
<svg version="1.1" xmlns="http://www.w3.org/2000/svg" viewBox="0 0 20 19" width="1em" height="1em" class="Icon-module__icon Icon-module__u-font-color-white footer-logo" style="font-size: 60px;">
	<g>
		<path d="M13.51 6.828h-2.746l4.83 8.796c.381.604-.059 1.388-.78 1.388H7.02a3.866 3.866 0 0 1-3.164 1.63C1.726 18.642 0 16.938 0 14.836c0-2.102 1.727-3.806 3.856-3.806 1.344 0 2.527.678 3.217 1.706h2.222l-4.8-8.622c-.379-.6.059-1.378.776-1.378h8.234l.24-1.906h.01a.495.495 0 0 1 .793-.348l5.15 3.91a.486.486 0 0 1 0 .777l-5.15 3.91a.497.497 0 0 1-.799-.388v-.005h-.004l-.234-1.858z" fill-rule="evenodd" fill="currentColor"/>
	</g>
</svg>
